HIERARCHY
ROOT Hips
{
	OFFSET 0.000000 0.000000 0.000000
	CHANNELS 6 Xposition Yposition Zposition Zrotation Yrotation Xrotation 
	JOINT LowerBack
	{
		OFFSET 0.000000 0.000000 0.000000
		CHANNELS 3 Zrotation Yrotation Xrotation
		JOINT Spine
		{
			OFFSET 0.028270 2.035590 -0.193380
			CHANNELS 3 Zrotation Yrotation Xrotation
			JOINT Spine1
			{
				OFFSET 0.056720 2.048850 -0.042750
				CHANNELS 3 Zrotation Yrotation Xrotation
				JOINT Neck
				{
					OFFSET 0.000000 0.000000 0.000000
					CHANNELS 3 Zrotation Yrotation Xrotation
					JOINT Neck1
					{
						OFFSET -0.054170 1.746240 0.172020
						CHANNELS 3 Zrotation Yrotation Xrotation
						JOINT Head
						{
							OFFSET 0.104070 1.761360 -0.123970
							CHANNELS 3 Zrotation Yrotation Xrotation
							End Site
							{
								OFFSET 0.000000 0.000000 0.000000
							}
						}
					}
				}
				JOINT LeftShoulder
				{
					OFFSET 0.000000 0.000000 0.000000
					CHANNELS 3 Zrotation Yrotation Xrotation
					JOINT LeftArm
					{
						OFFSET 3.362410 1.200890 -0.311210
						CHANNELS 3 Zrotation Yrotation Xrotation
						JOINT LeftForeArm
						{
							OFFSET 4.983000 -0.000000 -0.000000
							CHANNELS 3 Zrotation Yrotation Xrotation
							JOINT LeftHand
							{
								OFFSET 3.483560 -0.000000 -0.000000
								CHANNELS 3 Zrotation Yrotation Xrotation
								JOINT LeftFingerBase
								{
									OFFSET 0.000000 0.000000 0.000000
									CHANNELS 3 Zrotation Yrotation Xrotation
									JOINT LeftHandIndex1
									{
										OFFSET 0.715260 -0.000000 -0.000000
										CHANNELS 3 Zrotation Yrotation Xrotation
										End Site
										{
											OFFSET 0.000000 0.000000 0.000000
										}
									}
								}
								JOINT LThumb
								{
									OFFSET 0.000000 0.000000 0.000000
									CHANNELS 3 Zrotation Yrotation Xrotation
									End Site
									{
										OFFSET 0.000000 0.000000 0.000000
									}
								}
							}
						}
					}
				}
				JOINT RightShoulder
				{
					OFFSET 0.000000 0.000000 0.000000
					CHANNELS 3 Zrotation Yrotation Xrotation
					JOINT RightArm
					{
						OFFSET -3.136600 1.374050 -0.404650
						CHANNELS 3 Zrotation Yrotation Xrotation
						JOINT RightForeArm
						{
							OFFSET -5.241900 -0.000000 -0.000000
							CHANNELS 3 Zrotation Yrotation Xrotation
							JOINT RightHand
							{
								OFFSET -3.444170 -0.000000 -0.000000
								CHANNELS 3 Zrotation Yrotation Xrotation
								JOINT RightFingerBase
								{
									OFFSET 0.000000 0.000000 0.000000
									CHANNELS 3 Zrotation Yrotation Xrotation
									JOINT RightHandIndex1
									{
										OFFSET -0.622530 -0.000000 -0.000000
										CHANNELS 3 Zrotation Yrotation Xrotation
										End Site
										{
											OFFSET 0.000000 0.000000 0.000000
										}
									}
								}
								JOINT RThumb
								{
									OFFSET 0.000000 0.000000 0.000000
									CHANNELS 3 Zrotation Yrotation Xrotation
									End Site
									{
										OFFSET 0.000000 0.000000 0.000000
									}
								}
							}
						}
					}
				}
			}
		}
	}
}
}
MOTION
Frames: 18
Frame Time: 0.008333
4.761663 17.241498 3.077374 -68.228943 -81.782870 110.965753 12.954966 -2.637127 -6.966778 2.167034 -3.764359 -4.459035 -6.448127 -3.795078 0.932800 13.289488 -13.365064 -14.245760 -1.933052 -0.024363 -2.264946 0.000000 0.000000 0.000000 2.157291 9.440724 3.701491 -48.447298 4.205597 -35.682972 -0.889333 -65.359116 -0.103277 21.960014 -0.175376 -0.089041 -0.264464 0.284339 0.000000 0.000000 0.000000 0.000000 0.000000 0.000000 0.000000 10.866296 -9.963374 2.233005 57.205774 2.877569 -27.137806 0.420068 73.716075 -0.072028 -18.049072 10.607185 -1.775118 0.247253 -0.391365 0.000000 0.000000 0.000000 0.000000 0.000000 0.000000 0.000000 
4.764031 17.236168 3.076709 -70.389794 -81.666190 113.352906 13.042149 -2.557735 -6.862978 2.176924 -3.689574 -4.435333 -6.477747 -3.720207 0.921640 12.989947 -13.157357 -14.163854 -1.987385 -0.030721 -2.242330 0.000000 0.000000 0.000000 1.889310 9.575777 3.698375 -48.470711 4.015738 -35.872475 -0.894960 -65.050427 -0.101555 22.100914 -0.174139 -0.088165 -0.261777 0.277868 0.000000 0.000000 0.000000 0.000000 0.000000 0.000000 0.000000 10.791226 -9.753350 2.202368 57.226867 3.092445 -27.044645 0.414957 73.475819 -0.073739 -18.225779 10.653887 -1.800640 0.247137 -0.393775 0.000000 0.000000 0.000000 0.000000 0.000000 0.000000 0.000000 
4.773793 17.243065 3.050533 -76.932370 -81.588951 119.603283 12.587488 -2.400071 -6.267251 2.030384 -3.480441 -4.291813 -6.588349 -3.511213 0.879312 12.966624 -12.981319 -14.046560 -2.070597 -0.039717 -2.213154 0.000000 0.000000 0.000000 1.955700 9.649146 3.678727 -48.397721 3.874322 -36.069605 -0.876781 -64.676947 -0.100232 22.185553 -0.183703 -0.089517 -0.260738 0.273208 0.000000 0.000000 0.000000 0.000000 0.000000 0.000000 0.000000 11.180487 -9.518637 2.190079 57.332048 3.409576 -26.930289 0.418948 73.165566 -0.074661 -18.361610 10.705221 -1.822559 0.245977 -0.393904 0.000000 0.000000 0.000000 0.000000 0.000000 0.000000 0.000000 
4.771604 17.241574 3.045551 -78.385365 -81.537020 121.108204 12.491982 -2.354949 -6.214375 2.002729 -3.432299 -4.265207 -6.608788 -3.462683 0.901726 12.719644 -12.845138 -13.927846 -2.117364 -0.046203 -2.172541 0.000000 0.000000 0.000000 1.811813 9.717564 3.657140 -48.547329 3.711489 -36.077950 -0.884424 -64.405258 -0.098595 22.207232 -0.191880 -0.090330 -0.258362 0.268630 0.000000 0.000000 0.000000 0.000000 0.000000 0.000000 0.000000 11.159475 -9.401186 2.146667 57.355789 3.630290 -26.685548 0.422047 72.745443 -0.075396 -18.460771 10.742065 -1.838569 0.245312 -0.394310 0.000000 0.000000 0.000000 0.000000 0.000000 0.000000 0.000000 
4.767093 17.241615 3.038467 -79.341446 -81.561963 122.018597 12.300346 -2.338208 -6.178484 1.955761 -3.407665 -4.237152 -6.623696 -3.437589 0.937215 12.505570 -12.743414 -13.794279 -2.159302 -0.052569 -2.124555 0.000000 0.000000 0.000000 1.725617 9.745409 3.629572 -48.742726 3.568589 -36.001037 -0.893750 -64.170055 -0.097048 22.159654 -0.202073 -0.091437 -0.256341 0.265140 0.000000 0.000000 0.000000 0.000000 0.000000 0.000000 0.000000 11.162948 -9.331598 2.098343 57.380188 3.831025 -26.380201 0.428175 72.275890 -0.075646 -18.519541 10.770063 -1.848974 0.244398 -0.393729 0.000000 0.000000 0.000000 0.000000 0.000000 0.000000 0.000000 
4.760310 17.242877 3.029343 -79.763811 -81.672768 122.292632 12.014955 -2.351730 -6.152642 1.890174 -3.407684 -4.207540 -6.632725 -3.437182 0.982632 12.325144 -12.675178 -13.648827 -2.195684 -0.058680 -2.070513 0.000000 0.000000 0.000000 1.690146 9.730863 3.597408 -48.970929 3.448470 -35.846419 -0.904882 -63.979989 -0.095601 22.042183 -0.212880 -0.092537 -0.254710 0.262735 0.000000 0.000000 0.000000 0.000000 0.000000 0.000000 0.000000 11.185306 -9.308079 2.046461 57.407223 3.996037 -26.027457 0.436698 71.783761 -0.075436 -18.538885 10.787241 -1.853375 0.243265 -0.392235 0.000000 0.000000 0.000000 0.000000 0.000000 0.000000 0.000000 
4.751848 17.245559 3.017574 -79.676956 -81.878181 121.942723 11.623865 -2.398250 -6.114551 1.802956 -3.432585 -4.172352 -6.637421 -3.461801 1.034624 12.186045 -12.632451 -13.495488 -2.227294 -0.064484 -2.012461 0.000000 0.000000 0.000000 1.709088 9.686290 3.561788 -49.217709 3.334988 -35.626372 -0.917468 -63.830742 -0.094311 21.864565 -0.229910 -0.094933 -0.253522 0.261514 0.000000 0.000000 0.000000 0.000000 0.000000 0.000000 0.000000 11.234851 -9.322099 1.991314 57.441760 4.118840 -25.643865 0.446721 71.291387 -0.074818 -18.520679 10.793448 -1.852071 0.241832 -0.389874 0.000000 0.000000 0.000000 0.000000 0.000000 0.000000 0.000000 
4.741026 17.248925 3.003774 -79.028241 -82.163695 120.934320 11.150660 -2.470393 -6.073921 1.699647 -3.476605 -4.135482 -6.636666 -3.505754 1.090717 12.077535 -12.617522 -13.337413 -2.252767 -0.069824 -1.951510 0.000000 0.000000 0.000000 1.762470 9.609926 3.523023 -49.471622 3.236254 -35.349525 -0.931444 -63.728610 -0.093120 21.634587 -0.249431 -0.097523 -0.252689 0.261203 0.000000 0.000000 0.000000 0.000000 0.000000 0.000000 0.000000 11.291975 -9.371809 1.934875 57.486673 4.181651 -25.243285 0.457863 70.821713 -0.073849 -18.466702 10.788088 -1.845063 0.240217 -0.386849 0.000000 0.000000 0.000000 0.000000 0.000000 0.000000 0.000000 
4.728009 17.252944 2.987698 -77.842034 -82.517960 119.298891 10.598057 -2.562926 -6.023929 1.580439 -3.534041 -4.096399 -6.631700 -3.563391 1.148360 11.999149 -12.625234 -13.178715 -2.272522 -0.074651 -1.889464 0.000000 0.000000 0.000000 1.846410 9.513372 3.481457 -49.721314 3.142308 -35.029358 -0.946139 -63.667812 -0.092041 21.369473 -0.274146 -0.101109 -0.252188 0.261703 0.000000 0.000000 0.000000 0.000000 0.000000 0.000000 0.000000 11.355903 -9.448481 1.878038 57.547272 4.179643 -24.842068 0.469507 70.389816 -0.072597 -18.380648 10.772723 -1.833151 0.238415 -0.383302 0.000000 0.000000 0.000000 0.000000 0.000000 0.000000 0.000000 
4.712415 17.257177 2.970037 -76.090121 -82.913878 117.030206 9.994202 -2.665150 -5.976902 1.451588 -3.596555 -4.059361 -6.621921 -3.626412 1.204940 11.937605 -12.654520 -13.021699 -2.285993 -0.078907 -1.827113 0.000000 0.000000 0.000000 1.940486 9.396236 3.437254 -49.958905 3.063583 -34.677214 -0.961009 -63.652851 -0.091029 21.086326 -0.301002 -0.104991 -0.251917 0.262664 0.000000 0.000000 0.000000 0.000000 0.000000 0.000000 0.000000 11.407667 -9.545533 1.822782 57.626057 4.102766 -24.454979 0.481393 70.007739 -0.071135 -18.265704 10.749522 -1.816936 0.236529 -0.379471 0.000000 0.000000 0.000000 0.000000 0.000000 0.000000 0.000000 
4.695167 17.262307 2.949739 -73.922279 -83.346849 114.276087 9.319102 -2.772903 -5.908615 1.307492 -3.657462 -4.017833 -6.610411 -3.687959 1.262185 11.904158 -12.698968 -12.874408 -2.294845 -0.082548 -1.767849 0.000000 0.000000 0.000000 2.061410 9.301781 3.389356 -50.178820 2.942305 -34.305097 -0.975289 -63.649576 -0.090198 20.807079 -0.341495 -0.111372 -0.251935 0.264299 0.000000 0.000000 0.000000 0.000000 0.000000 0.000000 0.000000 11.469015 -9.654296 1.767481 57.728092 3.970539 -24.096475 0.492743 69.675804 -0.069529 -18.128276 10.721920 -1.797819 0.234446 -0.375422 0.000000 0.000000 0.000000 0.000000 0.000000 0.000000 0.000000 
4.675229 17.267511 2.928550 -71.260394 -83.776119 110.994878 8.627857 -2.872507 -5.852067 1.160757 -3.708518 -3.981335 -6.594995 -3.739862 1.316304 11.872164 -12.759298 -12.734672 -2.297994 -0.085596 -1.710555 0.000000 0.000000 0.000000 2.171349 9.206363 3.338608 -50.377903 2.826711 -33.924494 -0.988430 -63.681928 -0.089435 20.546784 -0.383449 -0.117951 -0.252098 0.265974 0.000000 0.000000 0.000000 0.000000 0.000000 0.000000 0.000000 11.503079 -9.769147 1.715652 57.851621 3.769382 -23.778637 0.503785 69.397502 -0.067849 -17.971746 10.692723 -1.776699 0.232371 -0.371463 0.000000 0.000000 0.000000 0.000000 0.000000 0.000000 0.000000 
4.652763 17.273005 2.906735 -68.187692 -84.183248 107.279818 7.934451 -2.957631 -5.804178 1.014065 -3.744297 -3.948701 -6.575949 -3.776565 1.368541 11.836944 -12.832921 -12.606299 -2.295921 -0.088027 -1.656713 0.000000 0.000000 0.000000 2.265922 9.131731 3.284373 -50.557016 2.692589 -33.543815 -1.000045 -63.735172 -0.088780 20.321339 -0.430417 -0.125428 -0.252410 0.267641 0.000000 0.000000 0.000000 0.000000 0.000000 0.000000 0.000000 11.508314 -9.885166 1.666902 57.995112 3.514269 -23.510981 0.514234 69.165711 -0.066169 -17.802597 10.664993 -1.754578 0.230314 -0.367733 0.000000 0.000000 0.000000 0.000000 0.000000 0.000000 0.000000 
4.618958 17.271580 2.908603 -57.844971 -84.312365 96.669740 7.735413 -3.141549 -6.211734 1.010895 -3.927030 -4.019763 -6.474323 -3.961710 1.458652 11.554749 -12.906537 -12.499886 -2.266901 -0.088367 -1.601810 0.000000 0.000000 0.000000 2.030868 9.108241 3.236722 -50.856244 2.491516 -33.092275 -1.033330 -63.887878 -0.087892 20.144009 -0.477677 -0.132873 -0.251509 0.268211 0.000000 0.000000 0.000000 0.000000 0.000000 0.000000 0.000000 11.099716 -10.069995 1.595587 58.042722 3.138894 -23.256998 0.518611 68.945735 -0.064665 -17.629588 10.634429 -1.732064 0.229098 -0.365065 0.000000 0.000000 0.000000 0.000000 0.000000 0.000000 0.000000 
4.592424 17.278436 2.886298 -54.262567 -84.580514 92.414266 7.083195 -3.184257 -6.168989 0.871738 -3.921216 -3.991691 -6.451866 -3.956946 1.504229 11.502845 -12.993741 -12.393566 -2.258351 -0.089921 -1.555138 0.000000 0.000000 0.000000 2.080459 9.084318 3.176658 -50.995054 2.332230 -32.742777 -1.039697 -63.984682 -0.087518 20.016966 -0.527694 -0.141150 -0.252114 0.269532 0.000000 0.000000 0.000000 0.000000 0.000000 0.000000 0.000000 11.053293 -10.170051 1.554517 58.216109 2.815308 -23.112095 0.527756 68.779646 -0.063118 -17.454191 10.616231 -1.711241 0.227165 -0.362017 0.000000 0.000000 0.000000 0.000000 0.000000 0.000000 0.000000 
4.564148 17.285842 2.864415 -50.693017 -84.792158 88.167208 6.475315 -3.205452 -6.135236 0.742135 -3.896946 -3.966991 -6.427161 -3.933623 1.547184 11.434121 -13.083116 -12.296946 -2.247059 -0.091119 -1.511755 0.000000 0.000000 0.000000 2.103557 9.086758 3.114194 -51.121233 2.169472 -32.416803 -1.043132 -64.108411 -0.087286 19.942959 -0.575575 -0.149328 -0.252885 0.270590 0.000000 0.000000 0.000000 0.000000 0.000000 0.000000 0.000000 10.973549 -10.258287 1.516819 58.398515 2.476236 -23.031024 0.536185 68.629722 -0.061712 -17.285578 10.603607 -1.692122 0.225333 -0.359407 0.000000 0.000000 0.000000 0.000000 0.000000 0.000000 0.000000 
4.534358 17.293722 2.843185 -47.261252 -84.942558 84.055870 5.923685 -3.207041 -6.108422 0.624874 -3.857079 -3.944850 -6.400328 -3.894606 1.587606 11.346919 -13.170840 -12.208147 -2.233757 -0.092054 -1.471161 0.000000 0.000000 0.000000 2.099792 9.114134 3.049918 -51.239036 2.012872 -32.117710 -1.043448 -64.265664 -0.087196 19.917784 -0.618825 -0.156905 -0.253828 0.271376 0.000000 0.000000 0.000000 0.000000 0.000000 0.000000 0.000000 10.861355 -10.332354 1.482015 58.583371 2.135178 -23.011254 0.543921 68.485227 -0.060480 -17.130213 10.596158 -1.675204 0.223630 -0.357234 0.000000 0.000000 0.000000 0.000000 0.000000 0.000000 0.000000 
4.503461 17.302026 2.822711 -44.085690 -85.030509 80.196707 5.434755 -3.192278 -6.083760 0.521525 -3.805339 -3.923913 -6.371721 -3.843643 1.625248 11.241966 -13.252943 -12.124513 -2.219236 -0.092831 -1.432622 0.000000 0.000000 0.000000 2.073128 9.161866 2.984485 -51.352077 1.874840 -31.848035 -1.040418 -64.464619 -0.087239 19.933432 -0.654402 -0.163481 -0.254950 0.271931 0.000000 0.000000 0.000000 0.000000 0.000000 0.000000 0.000000 10.720183 -10.390189 1.449579 58.764535 1.803927 -23.048046 0.550983 68.336826 -0.059445 -16.993682 10.592524 -1.660887 0.222071 -0.355465 0.000000 0.000000 0.000000 0.000000 0.000000 0.000000 0.000000 
